%TF.GenerationSoftware,KiCad,Pcbnew,(6.0.1)*%
%TF.CreationDate,2022-01-27T23:18:00+02:00*%
%TF.ProjectId,Keypadv1,4b657970-6164-4763-912e-6b696361645f,rev?*%
%TF.SameCoordinates,Original*%
%TF.FileFunction,AssemblyDrawing,Bot*%
%FSLAX46Y46*%
G04 Gerber Fmt 4.6, Leading zero omitted, Abs format (unit mm)*
G04 Created by KiCad (PCBNEW (6.0.1)) date 2022-01-27 23:18:00*
%MOMM*%
%LPD*%
G01*
G04 APERTURE LIST*
%ADD10C,0.150000*%
%ADD11C,0.120000*%
%ADD12C,0.100000*%
G04 APERTURE END LIST*
D10*
%TO.C,D6*%
X84692380Y-74057142D02*
X84692380Y-73485714D01*
X84692380Y-73771428D02*
X83692380Y-73771428D01*
X83835238Y-73676190D01*
X83930476Y-73580952D01*
X83978095Y-73485714D01*
X84692380Y-74485714D02*
X83692380Y-74485714D01*
X84692380Y-75057142D01*
X83692380Y-75057142D01*
X84025714Y-75961904D02*
X84692380Y-75961904D01*
X83644761Y-75723809D02*
X84359047Y-75485714D01*
X84359047Y-76104761D01*
X84692380Y-77009523D02*
X84692380Y-76438095D01*
X84692380Y-76723809D02*
X83692380Y-76723809D01*
X83835238Y-76628571D01*
X83930476Y-76533333D01*
X83978095Y-76438095D01*
X84025714Y-77866666D02*
X84692380Y-77866666D01*
X83644761Y-77628571D02*
X84359047Y-77390476D01*
X84359047Y-78009523D01*
X84120952Y-78533333D02*
X84073333Y-78438095D01*
X84025714Y-78390476D01*
X83930476Y-78342857D01*
X83882857Y-78342857D01*
X83787619Y-78390476D01*
X83740000Y-78438095D01*
X83692380Y-78533333D01*
X83692380Y-78723809D01*
X83740000Y-78819047D01*
X83787619Y-78866666D01*
X83882857Y-78914285D01*
X83930476Y-78914285D01*
X84025714Y-78866666D01*
X84073333Y-78819047D01*
X84120952Y-78723809D01*
X84120952Y-78533333D01*
X84168571Y-78438095D01*
X84216190Y-78390476D01*
X84311428Y-78342857D01*
X84501904Y-78342857D01*
X84597142Y-78390476D01*
X84644761Y-78438095D01*
X84692380Y-78533333D01*
X84692380Y-78723809D01*
X84644761Y-78819047D01*
X84597142Y-78866666D01*
X84501904Y-78914285D01*
X84311428Y-78914285D01*
X84216190Y-78866666D01*
X84168571Y-78819047D01*
X84120952Y-78723809D01*
X88612380Y-79748095D02*
X87612380Y-79748095D01*
X88612380Y-80319523D02*
X88040952Y-79890952D01*
X87612380Y-80319523D02*
X88183809Y-79748095D01*
D11*
X86721904Y-75309523D02*
X85921904Y-75309523D01*
X85921904Y-75500000D01*
X85960000Y-75614285D01*
X86036190Y-75690476D01*
X86112380Y-75728571D01*
X86264761Y-75766666D01*
X86379047Y-75766666D01*
X86531428Y-75728571D01*
X86607619Y-75690476D01*
X86683809Y-75614285D01*
X86721904Y-75500000D01*
X86721904Y-75309523D01*
X85921904Y-76452380D02*
X85921904Y-76300000D01*
X85960000Y-76223809D01*
X85998095Y-76185714D01*
X86112380Y-76109523D01*
X86264761Y-76071428D01*
X86569523Y-76071428D01*
X86645714Y-76109523D01*
X86683809Y-76147619D01*
X86721904Y-76223809D01*
X86721904Y-76376190D01*
X86683809Y-76452380D01*
X86645714Y-76490476D01*
X86569523Y-76528571D01*
X86379047Y-76528571D01*
X86302857Y-76490476D01*
X86264761Y-76452380D01*
X86226666Y-76376190D01*
X86226666Y-76223809D01*
X86264761Y-76147619D01*
X86302857Y-76109523D01*
X86379047Y-76071428D01*
D10*
%TO.C,D12*%
X102472380Y-103527142D02*
X102472380Y-102955714D01*
X102472380Y-103241428D02*
X101472380Y-103241428D01*
X101615238Y-103146190D01*
X101710476Y-103050952D01*
X101758095Y-102955714D01*
X102472380Y-103955714D02*
X101472380Y-103955714D01*
X102472380Y-104527142D01*
X101472380Y-104527142D01*
X101805714Y-105431904D02*
X102472380Y-105431904D01*
X101424761Y-105193809D02*
X102139047Y-104955714D01*
X102139047Y-105574761D01*
X102472380Y-106479523D02*
X102472380Y-105908095D01*
X102472380Y-106193809D02*
X101472380Y-106193809D01*
X101615238Y-106098571D01*
X101710476Y-106003333D01*
X101758095Y-105908095D01*
X101805714Y-107336666D02*
X102472380Y-107336666D01*
X101424761Y-107098571D02*
X102139047Y-106860476D01*
X102139047Y-107479523D01*
X101900952Y-108003333D02*
X101853333Y-107908095D01*
X101805714Y-107860476D01*
X101710476Y-107812857D01*
X101662857Y-107812857D01*
X101567619Y-107860476D01*
X101520000Y-107908095D01*
X101472380Y-108003333D01*
X101472380Y-108193809D01*
X101520000Y-108289047D01*
X101567619Y-108336666D01*
X101662857Y-108384285D01*
X101710476Y-108384285D01*
X101805714Y-108336666D01*
X101853333Y-108289047D01*
X101900952Y-108193809D01*
X101900952Y-108003333D01*
X101948571Y-107908095D01*
X101996190Y-107860476D01*
X102091428Y-107812857D01*
X102281904Y-107812857D01*
X102377142Y-107860476D01*
X102424761Y-107908095D01*
X102472380Y-108003333D01*
X102472380Y-108193809D01*
X102424761Y-108289047D01*
X102377142Y-108336666D01*
X102281904Y-108384285D01*
X102091428Y-108384285D01*
X101996190Y-108336666D01*
X101948571Y-108289047D01*
X101900952Y-108193809D01*
X106392380Y-109218095D02*
X105392380Y-109218095D01*
X106392380Y-109789523D02*
X105820952Y-109360952D01*
X105392380Y-109789523D02*
X105963809Y-109218095D01*
D11*
X104501904Y-104398571D02*
X103701904Y-104398571D01*
X103701904Y-104589047D01*
X103740000Y-104703333D01*
X103816190Y-104779523D01*
X103892380Y-104817619D01*
X104044761Y-104855714D01*
X104159047Y-104855714D01*
X104311428Y-104817619D01*
X104387619Y-104779523D01*
X104463809Y-104703333D01*
X104501904Y-104589047D01*
X104501904Y-104398571D01*
X104501904Y-105617619D02*
X104501904Y-105160476D01*
X104501904Y-105389047D02*
X103701904Y-105389047D01*
X103816190Y-105312857D01*
X103892380Y-105236666D01*
X103930476Y-105160476D01*
X103778095Y-105922380D02*
X103740000Y-105960476D01*
X103701904Y-106036666D01*
X103701904Y-106227142D01*
X103740000Y-106303333D01*
X103778095Y-106341428D01*
X103854285Y-106379523D01*
X103930476Y-106379523D01*
X104044761Y-106341428D01*
X104501904Y-105884285D01*
X104501904Y-106379523D01*
D10*
%TO.C,D8*%
X84692380Y-103527142D02*
X84692380Y-102955714D01*
X84692380Y-103241428D02*
X83692380Y-103241428D01*
X83835238Y-103146190D01*
X83930476Y-103050952D01*
X83978095Y-102955714D01*
X84692380Y-103955714D02*
X83692380Y-103955714D01*
X84692380Y-104527142D01*
X83692380Y-104527142D01*
X84025714Y-105431904D02*
X84692380Y-105431904D01*
X83644761Y-105193809D02*
X84359047Y-104955714D01*
X84359047Y-105574761D01*
X84692380Y-106479523D02*
X84692380Y-105908095D01*
X84692380Y-106193809D02*
X83692380Y-106193809D01*
X83835238Y-106098571D01*
X83930476Y-106003333D01*
X83978095Y-105908095D01*
X84025714Y-107336666D02*
X84692380Y-107336666D01*
X83644761Y-107098571D02*
X84359047Y-106860476D01*
X84359047Y-107479523D01*
X84120952Y-108003333D02*
X84073333Y-107908095D01*
X84025714Y-107860476D01*
X83930476Y-107812857D01*
X83882857Y-107812857D01*
X83787619Y-107860476D01*
X83740000Y-107908095D01*
X83692380Y-108003333D01*
X83692380Y-108193809D01*
X83740000Y-108289047D01*
X83787619Y-108336666D01*
X83882857Y-108384285D01*
X83930476Y-108384285D01*
X84025714Y-108336666D01*
X84073333Y-108289047D01*
X84120952Y-108193809D01*
X84120952Y-108003333D01*
X84168571Y-107908095D01*
X84216190Y-107860476D01*
X84311428Y-107812857D01*
X84501904Y-107812857D01*
X84597142Y-107860476D01*
X84644761Y-107908095D01*
X84692380Y-108003333D01*
X84692380Y-108193809D01*
X84644761Y-108289047D01*
X84597142Y-108336666D01*
X84501904Y-108384285D01*
X84311428Y-108384285D01*
X84216190Y-108336666D01*
X84168571Y-108289047D01*
X84120952Y-108193809D01*
D11*
X86721904Y-104779523D02*
X85921904Y-104779523D01*
X85921904Y-104970000D01*
X85960000Y-105084285D01*
X86036190Y-105160476D01*
X86112380Y-105198571D01*
X86264761Y-105236666D01*
X86379047Y-105236666D01*
X86531428Y-105198571D01*
X86607619Y-105160476D01*
X86683809Y-105084285D01*
X86721904Y-104970000D01*
X86721904Y-104779523D01*
X86264761Y-105693809D02*
X86226666Y-105617619D01*
X86188571Y-105579523D01*
X86112380Y-105541428D01*
X86074285Y-105541428D01*
X85998095Y-105579523D01*
X85960000Y-105617619D01*
X85921904Y-105693809D01*
X85921904Y-105846190D01*
X85960000Y-105922380D01*
X85998095Y-105960476D01*
X86074285Y-105998571D01*
X86112380Y-105998571D01*
X86188571Y-105960476D01*
X86226666Y-105922380D01*
X86264761Y-105846190D01*
X86264761Y-105693809D01*
X86302857Y-105617619D01*
X86340952Y-105579523D01*
X86417142Y-105541428D01*
X86569523Y-105541428D01*
X86645714Y-105579523D01*
X86683809Y-105617619D01*
X86721904Y-105693809D01*
X86721904Y-105846190D01*
X86683809Y-105922380D01*
X86645714Y-105960476D01*
X86569523Y-105998571D01*
X86417142Y-105998571D01*
X86340952Y-105960476D01*
X86302857Y-105922380D01*
X86264761Y-105846190D01*
D10*
X88612380Y-109218095D02*
X87612380Y-109218095D01*
X88612380Y-109789523D02*
X88040952Y-109360952D01*
X87612380Y-109789523D02*
X88183809Y-109218095D01*
%TO.C,D1*%
X66912380Y-60347142D02*
X66912380Y-59775714D01*
X66912380Y-60061428D02*
X65912380Y-60061428D01*
X66055238Y-59966190D01*
X66150476Y-59870952D01*
X66198095Y-59775714D01*
X66912380Y-60775714D02*
X65912380Y-60775714D01*
X66912380Y-61347142D01*
X65912380Y-61347142D01*
X66245714Y-62251904D02*
X66912380Y-62251904D01*
X65864761Y-62013809D02*
X66579047Y-61775714D01*
X66579047Y-62394761D01*
X66912380Y-63299523D02*
X66912380Y-62728095D01*
X66912380Y-63013809D02*
X65912380Y-63013809D01*
X66055238Y-62918571D01*
X66150476Y-62823333D01*
X66198095Y-62728095D01*
X66245714Y-64156666D02*
X66912380Y-64156666D01*
X65864761Y-63918571D02*
X66579047Y-63680476D01*
X66579047Y-64299523D01*
X66340952Y-64823333D02*
X66293333Y-64728095D01*
X66245714Y-64680476D01*
X66150476Y-64632857D01*
X66102857Y-64632857D01*
X66007619Y-64680476D01*
X65960000Y-64728095D01*
X65912380Y-64823333D01*
X65912380Y-65013809D01*
X65960000Y-65109047D01*
X66007619Y-65156666D01*
X66102857Y-65204285D01*
X66150476Y-65204285D01*
X66245714Y-65156666D01*
X66293333Y-65109047D01*
X66340952Y-65013809D01*
X66340952Y-64823333D01*
X66388571Y-64728095D01*
X66436190Y-64680476D01*
X66531428Y-64632857D01*
X66721904Y-64632857D01*
X66817142Y-64680476D01*
X66864761Y-64728095D01*
X66912380Y-64823333D01*
X66912380Y-65013809D01*
X66864761Y-65109047D01*
X66817142Y-65156666D01*
X66721904Y-65204285D01*
X66531428Y-65204285D01*
X66436190Y-65156666D01*
X66388571Y-65109047D01*
X66340952Y-65013809D01*
X70832380Y-66038095D02*
X69832380Y-66038095D01*
X70832380Y-66609523D02*
X70260952Y-66180952D01*
X69832380Y-66609523D02*
X70403809Y-66038095D01*
D11*
X68941904Y-61599523D02*
X68141904Y-61599523D01*
X68141904Y-61790000D01*
X68180000Y-61904285D01*
X68256190Y-61980476D01*
X68332380Y-62018571D01*
X68484761Y-62056666D01*
X68599047Y-62056666D01*
X68751428Y-62018571D01*
X68827619Y-61980476D01*
X68903809Y-61904285D01*
X68941904Y-61790000D01*
X68941904Y-61599523D01*
X68941904Y-62818571D02*
X68941904Y-62361428D01*
X68941904Y-62590000D02*
X68141904Y-62590000D01*
X68256190Y-62513809D01*
X68332380Y-62437619D01*
X68370476Y-62361428D01*
D10*
%TO.C,D11*%
X102472380Y-88287142D02*
X102472380Y-87715714D01*
X102472380Y-88001428D02*
X101472380Y-88001428D01*
X101615238Y-87906190D01*
X101710476Y-87810952D01*
X101758095Y-87715714D01*
X102472380Y-88715714D02*
X101472380Y-88715714D01*
X102472380Y-89287142D01*
X101472380Y-89287142D01*
X101805714Y-90191904D02*
X102472380Y-90191904D01*
X101424761Y-89953809D02*
X102139047Y-89715714D01*
X102139047Y-90334761D01*
X102472380Y-91239523D02*
X102472380Y-90668095D01*
X102472380Y-90953809D02*
X101472380Y-90953809D01*
X101615238Y-90858571D01*
X101710476Y-90763333D01*
X101758095Y-90668095D01*
X101805714Y-92096666D02*
X102472380Y-92096666D01*
X101424761Y-91858571D02*
X102139047Y-91620476D01*
X102139047Y-92239523D01*
X101900952Y-92763333D02*
X101853333Y-92668095D01*
X101805714Y-92620476D01*
X101710476Y-92572857D01*
X101662857Y-92572857D01*
X101567619Y-92620476D01*
X101520000Y-92668095D01*
X101472380Y-92763333D01*
X101472380Y-92953809D01*
X101520000Y-93049047D01*
X101567619Y-93096666D01*
X101662857Y-93144285D01*
X101710476Y-93144285D01*
X101805714Y-93096666D01*
X101853333Y-93049047D01*
X101900952Y-92953809D01*
X101900952Y-92763333D01*
X101948571Y-92668095D01*
X101996190Y-92620476D01*
X102091428Y-92572857D01*
X102281904Y-92572857D01*
X102377142Y-92620476D01*
X102424761Y-92668095D01*
X102472380Y-92763333D01*
X102472380Y-92953809D01*
X102424761Y-93049047D01*
X102377142Y-93096666D01*
X102281904Y-93144285D01*
X102091428Y-93144285D01*
X101996190Y-93096666D01*
X101948571Y-93049047D01*
X101900952Y-92953809D01*
D11*
X104501904Y-89158571D02*
X103701904Y-89158571D01*
X103701904Y-89349047D01*
X103740000Y-89463333D01*
X103816190Y-89539523D01*
X103892380Y-89577619D01*
X104044761Y-89615714D01*
X104159047Y-89615714D01*
X104311428Y-89577619D01*
X104387619Y-89539523D01*
X104463809Y-89463333D01*
X104501904Y-89349047D01*
X104501904Y-89158571D01*
X104501904Y-90377619D02*
X104501904Y-89920476D01*
X104501904Y-90149047D02*
X103701904Y-90149047D01*
X103816190Y-90072857D01*
X103892380Y-89996666D01*
X103930476Y-89920476D01*
X104501904Y-91139523D02*
X104501904Y-90682380D01*
X104501904Y-90910952D02*
X103701904Y-90910952D01*
X103816190Y-90834761D01*
X103892380Y-90758571D01*
X103930476Y-90682380D01*
D10*
X106392380Y-93978095D02*
X105392380Y-93978095D01*
X106392380Y-94549523D02*
X105820952Y-94120952D01*
X105392380Y-94549523D02*
X105963809Y-93978095D01*
%TO.C,D5*%
X84692380Y-60347142D02*
X84692380Y-59775714D01*
X84692380Y-60061428D02*
X83692380Y-60061428D01*
X83835238Y-59966190D01*
X83930476Y-59870952D01*
X83978095Y-59775714D01*
X84692380Y-60775714D02*
X83692380Y-60775714D01*
X84692380Y-61347142D01*
X83692380Y-61347142D01*
X84025714Y-62251904D02*
X84692380Y-62251904D01*
X83644761Y-62013809D02*
X84359047Y-61775714D01*
X84359047Y-62394761D01*
X84692380Y-63299523D02*
X84692380Y-62728095D01*
X84692380Y-63013809D02*
X83692380Y-63013809D01*
X83835238Y-62918571D01*
X83930476Y-62823333D01*
X83978095Y-62728095D01*
X84025714Y-64156666D02*
X84692380Y-64156666D01*
X83644761Y-63918571D02*
X84359047Y-63680476D01*
X84359047Y-64299523D01*
X84120952Y-64823333D02*
X84073333Y-64728095D01*
X84025714Y-64680476D01*
X83930476Y-64632857D01*
X83882857Y-64632857D01*
X83787619Y-64680476D01*
X83740000Y-64728095D01*
X83692380Y-64823333D01*
X83692380Y-65013809D01*
X83740000Y-65109047D01*
X83787619Y-65156666D01*
X83882857Y-65204285D01*
X83930476Y-65204285D01*
X84025714Y-65156666D01*
X84073333Y-65109047D01*
X84120952Y-65013809D01*
X84120952Y-64823333D01*
X84168571Y-64728095D01*
X84216190Y-64680476D01*
X84311428Y-64632857D01*
X84501904Y-64632857D01*
X84597142Y-64680476D01*
X84644761Y-64728095D01*
X84692380Y-64823333D01*
X84692380Y-65013809D01*
X84644761Y-65109047D01*
X84597142Y-65156666D01*
X84501904Y-65204285D01*
X84311428Y-65204285D01*
X84216190Y-65156666D01*
X84168571Y-65109047D01*
X84120952Y-65013809D01*
D11*
X86721904Y-61599523D02*
X85921904Y-61599523D01*
X85921904Y-61790000D01*
X85960000Y-61904285D01*
X86036190Y-61980476D01*
X86112380Y-62018571D01*
X86264761Y-62056666D01*
X86379047Y-62056666D01*
X86531428Y-62018571D01*
X86607619Y-61980476D01*
X86683809Y-61904285D01*
X86721904Y-61790000D01*
X86721904Y-61599523D01*
X85921904Y-62780476D02*
X85921904Y-62399523D01*
X86302857Y-62361428D01*
X86264761Y-62399523D01*
X86226666Y-62475714D01*
X86226666Y-62666190D01*
X86264761Y-62742380D01*
X86302857Y-62780476D01*
X86379047Y-62818571D01*
X86569523Y-62818571D01*
X86645714Y-62780476D01*
X86683809Y-62742380D01*
X86721904Y-62666190D01*
X86721904Y-62475714D01*
X86683809Y-62399523D01*
X86645714Y-62361428D01*
D10*
X88612380Y-66038095D02*
X87612380Y-66038095D01*
X88612380Y-66609523D02*
X88040952Y-66180952D01*
X87612380Y-66609523D02*
X88183809Y-66038095D01*
%TO.C,D14*%
X120252380Y-74057142D02*
X120252380Y-73485714D01*
X120252380Y-73771428D02*
X119252380Y-73771428D01*
X119395238Y-73676190D01*
X119490476Y-73580952D01*
X119538095Y-73485714D01*
X120252380Y-74485714D02*
X119252380Y-74485714D01*
X120252380Y-75057142D01*
X119252380Y-75057142D01*
X119585714Y-75961904D02*
X120252380Y-75961904D01*
X119204761Y-75723809D02*
X119919047Y-75485714D01*
X119919047Y-76104761D01*
X120252380Y-77009523D02*
X120252380Y-76438095D01*
X120252380Y-76723809D02*
X119252380Y-76723809D01*
X119395238Y-76628571D01*
X119490476Y-76533333D01*
X119538095Y-76438095D01*
X119585714Y-77866666D02*
X120252380Y-77866666D01*
X119204761Y-77628571D02*
X119919047Y-77390476D01*
X119919047Y-78009523D01*
X119680952Y-78533333D02*
X119633333Y-78438095D01*
X119585714Y-78390476D01*
X119490476Y-78342857D01*
X119442857Y-78342857D01*
X119347619Y-78390476D01*
X119300000Y-78438095D01*
X119252380Y-78533333D01*
X119252380Y-78723809D01*
X119300000Y-78819047D01*
X119347619Y-78866666D01*
X119442857Y-78914285D01*
X119490476Y-78914285D01*
X119585714Y-78866666D01*
X119633333Y-78819047D01*
X119680952Y-78723809D01*
X119680952Y-78533333D01*
X119728571Y-78438095D01*
X119776190Y-78390476D01*
X119871428Y-78342857D01*
X120061904Y-78342857D01*
X120157142Y-78390476D01*
X120204761Y-78438095D01*
X120252380Y-78533333D01*
X120252380Y-78723809D01*
X120204761Y-78819047D01*
X120157142Y-78866666D01*
X120061904Y-78914285D01*
X119871428Y-78914285D01*
X119776190Y-78866666D01*
X119728571Y-78819047D01*
X119680952Y-78723809D01*
X124172380Y-79748095D02*
X123172380Y-79748095D01*
X124172380Y-80319523D02*
X123600952Y-79890952D01*
X123172380Y-80319523D02*
X123743809Y-79748095D01*
D11*
X122281904Y-74928571D02*
X121481904Y-74928571D01*
X121481904Y-75119047D01*
X121520000Y-75233333D01*
X121596190Y-75309523D01*
X121672380Y-75347619D01*
X121824761Y-75385714D01*
X121939047Y-75385714D01*
X122091428Y-75347619D01*
X122167619Y-75309523D01*
X122243809Y-75233333D01*
X122281904Y-75119047D01*
X122281904Y-74928571D01*
X122281904Y-76147619D02*
X122281904Y-75690476D01*
X122281904Y-75919047D02*
X121481904Y-75919047D01*
X121596190Y-75842857D01*
X121672380Y-75766666D01*
X121710476Y-75690476D01*
X121748571Y-76833333D02*
X122281904Y-76833333D01*
X121443809Y-76642857D02*
X122015238Y-76452380D01*
X122015238Y-76947619D01*
D10*
%TO.C,D2*%
X66912380Y-74057142D02*
X66912380Y-73485714D01*
X66912380Y-73771428D02*
X65912380Y-73771428D01*
X66055238Y-73676190D01*
X66150476Y-73580952D01*
X66198095Y-73485714D01*
X66912380Y-74485714D02*
X65912380Y-74485714D01*
X66912380Y-75057142D01*
X65912380Y-75057142D01*
X66245714Y-75961904D02*
X66912380Y-75961904D01*
X65864761Y-75723809D02*
X66579047Y-75485714D01*
X66579047Y-76104761D01*
X66912380Y-77009523D02*
X66912380Y-76438095D01*
X66912380Y-76723809D02*
X65912380Y-76723809D01*
X66055238Y-76628571D01*
X66150476Y-76533333D01*
X66198095Y-76438095D01*
X66245714Y-77866666D02*
X66912380Y-77866666D01*
X65864761Y-77628571D02*
X66579047Y-77390476D01*
X66579047Y-78009523D01*
X66340952Y-78533333D02*
X66293333Y-78438095D01*
X66245714Y-78390476D01*
X66150476Y-78342857D01*
X66102857Y-78342857D01*
X66007619Y-78390476D01*
X65960000Y-78438095D01*
X65912380Y-78533333D01*
X65912380Y-78723809D01*
X65960000Y-78819047D01*
X66007619Y-78866666D01*
X66102857Y-78914285D01*
X66150476Y-78914285D01*
X66245714Y-78866666D01*
X66293333Y-78819047D01*
X66340952Y-78723809D01*
X66340952Y-78533333D01*
X66388571Y-78438095D01*
X66436190Y-78390476D01*
X66531428Y-78342857D01*
X66721904Y-78342857D01*
X66817142Y-78390476D01*
X66864761Y-78438095D01*
X66912380Y-78533333D01*
X66912380Y-78723809D01*
X66864761Y-78819047D01*
X66817142Y-78866666D01*
X66721904Y-78914285D01*
X66531428Y-78914285D01*
X66436190Y-78866666D01*
X66388571Y-78819047D01*
X66340952Y-78723809D01*
X70832380Y-79748095D02*
X69832380Y-79748095D01*
X70832380Y-80319523D02*
X70260952Y-79890952D01*
X69832380Y-80319523D02*
X70403809Y-79748095D01*
D11*
X68941904Y-75309523D02*
X68141904Y-75309523D01*
X68141904Y-75500000D01*
X68180000Y-75614285D01*
X68256190Y-75690476D01*
X68332380Y-75728571D01*
X68484761Y-75766666D01*
X68599047Y-75766666D01*
X68751428Y-75728571D01*
X68827619Y-75690476D01*
X68903809Y-75614285D01*
X68941904Y-75500000D01*
X68941904Y-75309523D01*
X68218095Y-76071428D02*
X68180000Y-76109523D01*
X68141904Y-76185714D01*
X68141904Y-76376190D01*
X68180000Y-76452380D01*
X68218095Y-76490476D01*
X68294285Y-76528571D01*
X68370476Y-76528571D01*
X68484761Y-76490476D01*
X68941904Y-76033333D01*
X68941904Y-76528571D01*
D10*
%TO.C,D9*%
X102472380Y-60347142D02*
X102472380Y-59775714D01*
X102472380Y-60061428D02*
X101472380Y-60061428D01*
X101615238Y-59966190D01*
X101710476Y-59870952D01*
X101758095Y-59775714D01*
X102472380Y-60775714D02*
X101472380Y-60775714D01*
X102472380Y-61347142D01*
X101472380Y-61347142D01*
X101805714Y-62251904D02*
X102472380Y-62251904D01*
X101424761Y-62013809D02*
X102139047Y-61775714D01*
X102139047Y-62394761D01*
X102472380Y-63299523D02*
X102472380Y-62728095D01*
X102472380Y-63013809D02*
X101472380Y-63013809D01*
X101615238Y-62918571D01*
X101710476Y-62823333D01*
X101758095Y-62728095D01*
X101805714Y-64156666D02*
X102472380Y-64156666D01*
X101424761Y-63918571D02*
X102139047Y-63680476D01*
X102139047Y-64299523D01*
X101900952Y-64823333D02*
X101853333Y-64728095D01*
X101805714Y-64680476D01*
X101710476Y-64632857D01*
X101662857Y-64632857D01*
X101567619Y-64680476D01*
X101520000Y-64728095D01*
X101472380Y-64823333D01*
X101472380Y-65013809D01*
X101520000Y-65109047D01*
X101567619Y-65156666D01*
X101662857Y-65204285D01*
X101710476Y-65204285D01*
X101805714Y-65156666D01*
X101853333Y-65109047D01*
X101900952Y-65013809D01*
X101900952Y-64823333D01*
X101948571Y-64728095D01*
X101996190Y-64680476D01*
X102091428Y-64632857D01*
X102281904Y-64632857D01*
X102377142Y-64680476D01*
X102424761Y-64728095D01*
X102472380Y-64823333D01*
X102472380Y-65013809D01*
X102424761Y-65109047D01*
X102377142Y-65156666D01*
X102281904Y-65204285D01*
X102091428Y-65204285D01*
X101996190Y-65156666D01*
X101948571Y-65109047D01*
X101900952Y-65013809D01*
X106392380Y-66038095D02*
X105392380Y-66038095D01*
X106392380Y-66609523D02*
X105820952Y-66180952D01*
X105392380Y-66609523D02*
X105963809Y-66038095D01*
D11*
X104501904Y-61599523D02*
X103701904Y-61599523D01*
X103701904Y-61790000D01*
X103740000Y-61904285D01*
X103816190Y-61980476D01*
X103892380Y-62018571D01*
X104044761Y-62056666D01*
X104159047Y-62056666D01*
X104311428Y-62018571D01*
X104387619Y-61980476D01*
X104463809Y-61904285D01*
X104501904Y-61790000D01*
X104501904Y-61599523D01*
X104501904Y-62437619D02*
X104501904Y-62590000D01*
X104463809Y-62666190D01*
X104425714Y-62704285D01*
X104311428Y-62780476D01*
X104159047Y-62818571D01*
X103854285Y-62818571D01*
X103778095Y-62780476D01*
X103740000Y-62742380D01*
X103701904Y-62666190D01*
X103701904Y-62513809D01*
X103740000Y-62437619D01*
X103778095Y-62399523D01*
X103854285Y-62361428D01*
X104044761Y-62361428D01*
X104120952Y-62399523D01*
X104159047Y-62437619D01*
X104197142Y-62513809D01*
X104197142Y-62666190D01*
X104159047Y-62742380D01*
X104120952Y-62780476D01*
X104044761Y-62818571D01*
D10*
%TO.C,D15*%
X120252380Y-88287142D02*
X120252380Y-87715714D01*
X120252380Y-88001428D02*
X119252380Y-88001428D01*
X119395238Y-87906190D01*
X119490476Y-87810952D01*
X119538095Y-87715714D01*
X120252380Y-88715714D02*
X119252380Y-88715714D01*
X120252380Y-89287142D01*
X119252380Y-89287142D01*
X119585714Y-90191904D02*
X120252380Y-90191904D01*
X119204761Y-89953809D02*
X119919047Y-89715714D01*
X119919047Y-90334761D01*
X120252380Y-91239523D02*
X120252380Y-90668095D01*
X120252380Y-90953809D02*
X119252380Y-90953809D01*
X119395238Y-90858571D01*
X119490476Y-90763333D01*
X119538095Y-90668095D01*
X119585714Y-92096666D02*
X120252380Y-92096666D01*
X119204761Y-91858571D02*
X119919047Y-91620476D01*
X119919047Y-92239523D01*
X119680952Y-92763333D02*
X119633333Y-92668095D01*
X119585714Y-92620476D01*
X119490476Y-92572857D01*
X119442857Y-92572857D01*
X119347619Y-92620476D01*
X119300000Y-92668095D01*
X119252380Y-92763333D01*
X119252380Y-92953809D01*
X119300000Y-93049047D01*
X119347619Y-93096666D01*
X119442857Y-93144285D01*
X119490476Y-93144285D01*
X119585714Y-93096666D01*
X119633333Y-93049047D01*
X119680952Y-92953809D01*
X119680952Y-92763333D01*
X119728571Y-92668095D01*
X119776190Y-92620476D01*
X119871428Y-92572857D01*
X120061904Y-92572857D01*
X120157142Y-92620476D01*
X120204761Y-92668095D01*
X120252380Y-92763333D01*
X120252380Y-92953809D01*
X120204761Y-93049047D01*
X120157142Y-93096666D01*
X120061904Y-93144285D01*
X119871428Y-93144285D01*
X119776190Y-93096666D01*
X119728571Y-93049047D01*
X119680952Y-92953809D01*
D11*
X122281904Y-89158571D02*
X121481904Y-89158571D01*
X121481904Y-89349047D01*
X121520000Y-89463333D01*
X121596190Y-89539523D01*
X121672380Y-89577619D01*
X121824761Y-89615714D01*
X121939047Y-89615714D01*
X122091428Y-89577619D01*
X122167619Y-89539523D01*
X122243809Y-89463333D01*
X122281904Y-89349047D01*
X122281904Y-89158571D01*
X122281904Y-90377619D02*
X122281904Y-89920476D01*
X122281904Y-90149047D02*
X121481904Y-90149047D01*
X121596190Y-90072857D01*
X121672380Y-89996666D01*
X121710476Y-89920476D01*
X121481904Y-91101428D02*
X121481904Y-90720476D01*
X121862857Y-90682380D01*
X121824761Y-90720476D01*
X121786666Y-90796666D01*
X121786666Y-90987142D01*
X121824761Y-91063333D01*
X121862857Y-91101428D01*
X121939047Y-91139523D01*
X122129523Y-91139523D01*
X122205714Y-91101428D01*
X122243809Y-91063333D01*
X122281904Y-90987142D01*
X122281904Y-90796666D01*
X122243809Y-90720476D01*
X122205714Y-90682380D01*
D10*
X124172380Y-93978095D02*
X123172380Y-93978095D01*
X124172380Y-94549523D02*
X123600952Y-94120952D01*
X123172380Y-94549523D02*
X123743809Y-93978095D01*
%TO.C,D4*%
X66912380Y-103527142D02*
X66912380Y-102955714D01*
X66912380Y-103241428D02*
X65912380Y-103241428D01*
X66055238Y-103146190D01*
X66150476Y-103050952D01*
X66198095Y-102955714D01*
X66912380Y-103955714D02*
X65912380Y-103955714D01*
X66912380Y-104527142D01*
X65912380Y-104527142D01*
X66245714Y-105431904D02*
X66912380Y-105431904D01*
X65864761Y-105193809D02*
X66579047Y-104955714D01*
X66579047Y-105574761D01*
X66912380Y-106479523D02*
X66912380Y-105908095D01*
X66912380Y-106193809D02*
X65912380Y-106193809D01*
X66055238Y-106098571D01*
X66150476Y-106003333D01*
X66198095Y-105908095D01*
X66245714Y-107336666D02*
X66912380Y-107336666D01*
X65864761Y-107098571D02*
X66579047Y-106860476D01*
X66579047Y-107479523D01*
X66340952Y-108003333D02*
X66293333Y-107908095D01*
X66245714Y-107860476D01*
X66150476Y-107812857D01*
X66102857Y-107812857D01*
X66007619Y-107860476D01*
X65960000Y-107908095D01*
X65912380Y-108003333D01*
X65912380Y-108193809D01*
X65960000Y-108289047D01*
X66007619Y-108336666D01*
X66102857Y-108384285D01*
X66150476Y-108384285D01*
X66245714Y-108336666D01*
X66293333Y-108289047D01*
X66340952Y-108193809D01*
X66340952Y-108003333D01*
X66388571Y-107908095D01*
X66436190Y-107860476D01*
X66531428Y-107812857D01*
X66721904Y-107812857D01*
X66817142Y-107860476D01*
X66864761Y-107908095D01*
X66912380Y-108003333D01*
X66912380Y-108193809D01*
X66864761Y-108289047D01*
X66817142Y-108336666D01*
X66721904Y-108384285D01*
X66531428Y-108384285D01*
X66436190Y-108336666D01*
X66388571Y-108289047D01*
X66340952Y-108193809D01*
X70832380Y-109218095D02*
X69832380Y-109218095D01*
X70832380Y-109789523D02*
X70260952Y-109360952D01*
X69832380Y-109789523D02*
X70403809Y-109218095D01*
D11*
X68941904Y-104779523D02*
X68141904Y-104779523D01*
X68141904Y-104970000D01*
X68180000Y-105084285D01*
X68256190Y-105160476D01*
X68332380Y-105198571D01*
X68484761Y-105236666D01*
X68599047Y-105236666D01*
X68751428Y-105198571D01*
X68827619Y-105160476D01*
X68903809Y-105084285D01*
X68941904Y-104970000D01*
X68941904Y-104779523D01*
X68408571Y-105922380D02*
X68941904Y-105922380D01*
X68103809Y-105731904D02*
X68675238Y-105541428D01*
X68675238Y-106036666D01*
D10*
%TO.C,D10*%
X102472380Y-74057142D02*
X102472380Y-73485714D01*
X102472380Y-73771428D02*
X101472380Y-73771428D01*
X101615238Y-73676190D01*
X101710476Y-73580952D01*
X101758095Y-73485714D01*
X102472380Y-74485714D02*
X101472380Y-74485714D01*
X102472380Y-75057142D01*
X101472380Y-75057142D01*
X101805714Y-75961904D02*
X102472380Y-75961904D01*
X101424761Y-75723809D02*
X102139047Y-75485714D01*
X102139047Y-76104761D01*
X102472380Y-77009523D02*
X102472380Y-76438095D01*
X102472380Y-76723809D02*
X101472380Y-76723809D01*
X101615238Y-76628571D01*
X101710476Y-76533333D01*
X101758095Y-76438095D01*
X101805714Y-77866666D02*
X102472380Y-77866666D01*
X101424761Y-77628571D02*
X102139047Y-77390476D01*
X102139047Y-78009523D01*
X101900952Y-78533333D02*
X101853333Y-78438095D01*
X101805714Y-78390476D01*
X101710476Y-78342857D01*
X101662857Y-78342857D01*
X101567619Y-78390476D01*
X101520000Y-78438095D01*
X101472380Y-78533333D01*
X101472380Y-78723809D01*
X101520000Y-78819047D01*
X101567619Y-78866666D01*
X101662857Y-78914285D01*
X101710476Y-78914285D01*
X101805714Y-78866666D01*
X101853333Y-78819047D01*
X101900952Y-78723809D01*
X101900952Y-78533333D01*
X101948571Y-78438095D01*
X101996190Y-78390476D01*
X102091428Y-78342857D01*
X102281904Y-78342857D01*
X102377142Y-78390476D01*
X102424761Y-78438095D01*
X102472380Y-78533333D01*
X102472380Y-78723809D01*
X102424761Y-78819047D01*
X102377142Y-78866666D01*
X102281904Y-78914285D01*
X102091428Y-78914285D01*
X101996190Y-78866666D01*
X101948571Y-78819047D01*
X101900952Y-78723809D01*
D11*
X104501904Y-74928571D02*
X103701904Y-74928571D01*
X103701904Y-75119047D01*
X103740000Y-75233333D01*
X103816190Y-75309523D01*
X103892380Y-75347619D01*
X104044761Y-75385714D01*
X104159047Y-75385714D01*
X104311428Y-75347619D01*
X104387619Y-75309523D01*
X104463809Y-75233333D01*
X104501904Y-75119047D01*
X104501904Y-74928571D01*
X104501904Y-76147619D02*
X104501904Y-75690476D01*
X104501904Y-75919047D02*
X103701904Y-75919047D01*
X103816190Y-75842857D01*
X103892380Y-75766666D01*
X103930476Y-75690476D01*
X103701904Y-76642857D02*
X103701904Y-76719047D01*
X103740000Y-76795238D01*
X103778095Y-76833333D01*
X103854285Y-76871428D01*
X104006666Y-76909523D01*
X104197142Y-76909523D01*
X104349523Y-76871428D01*
X104425714Y-76833333D01*
X104463809Y-76795238D01*
X104501904Y-76719047D01*
X104501904Y-76642857D01*
X104463809Y-76566666D01*
X104425714Y-76528571D01*
X104349523Y-76490476D01*
X104197142Y-76452380D01*
X104006666Y-76452380D01*
X103854285Y-76490476D01*
X103778095Y-76528571D01*
X103740000Y-76566666D01*
X103701904Y-76642857D01*
D10*
X106392380Y-79748095D02*
X105392380Y-79748095D01*
X106392380Y-80319523D02*
X105820952Y-79890952D01*
X105392380Y-80319523D02*
X105963809Y-79748095D01*
%TO.C,D16*%
X120252380Y-103527142D02*
X120252380Y-102955714D01*
X120252380Y-103241428D02*
X119252380Y-103241428D01*
X119395238Y-103146190D01*
X119490476Y-103050952D01*
X119538095Y-102955714D01*
X120252380Y-103955714D02*
X119252380Y-103955714D01*
X120252380Y-104527142D01*
X119252380Y-104527142D01*
X119585714Y-105431904D02*
X120252380Y-105431904D01*
X119204761Y-105193809D02*
X119919047Y-104955714D01*
X119919047Y-105574761D01*
X120252380Y-106479523D02*
X120252380Y-105908095D01*
X120252380Y-106193809D02*
X119252380Y-106193809D01*
X119395238Y-106098571D01*
X119490476Y-106003333D01*
X119538095Y-105908095D01*
X119585714Y-107336666D02*
X120252380Y-107336666D01*
X119204761Y-107098571D02*
X119919047Y-106860476D01*
X119919047Y-107479523D01*
X119680952Y-108003333D02*
X119633333Y-107908095D01*
X119585714Y-107860476D01*
X119490476Y-107812857D01*
X119442857Y-107812857D01*
X119347619Y-107860476D01*
X119300000Y-107908095D01*
X119252380Y-108003333D01*
X119252380Y-108193809D01*
X119300000Y-108289047D01*
X119347619Y-108336666D01*
X119442857Y-108384285D01*
X119490476Y-108384285D01*
X119585714Y-108336666D01*
X119633333Y-108289047D01*
X119680952Y-108193809D01*
X119680952Y-108003333D01*
X119728571Y-107908095D01*
X119776190Y-107860476D01*
X119871428Y-107812857D01*
X120061904Y-107812857D01*
X120157142Y-107860476D01*
X120204761Y-107908095D01*
X120252380Y-108003333D01*
X120252380Y-108193809D01*
X120204761Y-108289047D01*
X120157142Y-108336666D01*
X120061904Y-108384285D01*
X119871428Y-108384285D01*
X119776190Y-108336666D01*
X119728571Y-108289047D01*
X119680952Y-108193809D01*
D11*
X122281904Y-104398571D02*
X121481904Y-104398571D01*
X121481904Y-104589047D01*
X121520000Y-104703333D01*
X121596190Y-104779523D01*
X121672380Y-104817619D01*
X121824761Y-104855714D01*
X121939047Y-104855714D01*
X122091428Y-104817619D01*
X122167619Y-104779523D01*
X122243809Y-104703333D01*
X122281904Y-104589047D01*
X122281904Y-104398571D01*
X122281904Y-105617619D02*
X122281904Y-105160476D01*
X122281904Y-105389047D02*
X121481904Y-105389047D01*
X121596190Y-105312857D01*
X121672380Y-105236666D01*
X121710476Y-105160476D01*
X121481904Y-106303333D02*
X121481904Y-106150952D01*
X121520000Y-106074761D01*
X121558095Y-106036666D01*
X121672380Y-105960476D01*
X121824761Y-105922380D01*
X122129523Y-105922380D01*
X122205714Y-105960476D01*
X122243809Y-105998571D01*
X122281904Y-106074761D01*
X122281904Y-106227142D01*
X122243809Y-106303333D01*
X122205714Y-106341428D01*
X122129523Y-106379523D01*
X121939047Y-106379523D01*
X121862857Y-106341428D01*
X121824761Y-106303333D01*
X121786666Y-106227142D01*
X121786666Y-106074761D01*
X121824761Y-105998571D01*
X121862857Y-105960476D01*
X121939047Y-105922380D01*
D10*
X124172380Y-109218095D02*
X123172380Y-109218095D01*
X124172380Y-109789523D02*
X123600952Y-109360952D01*
X123172380Y-109789523D02*
X123743809Y-109218095D01*
%TO.C,D13*%
X120252380Y-60347142D02*
X120252380Y-59775714D01*
X120252380Y-60061428D02*
X119252380Y-60061428D01*
X119395238Y-59966190D01*
X119490476Y-59870952D01*
X119538095Y-59775714D01*
X120252380Y-60775714D02*
X119252380Y-60775714D01*
X120252380Y-61347142D01*
X119252380Y-61347142D01*
X119585714Y-62251904D02*
X120252380Y-62251904D01*
X119204761Y-62013809D02*
X119919047Y-61775714D01*
X119919047Y-62394761D01*
X120252380Y-63299523D02*
X120252380Y-62728095D01*
X120252380Y-63013809D02*
X119252380Y-63013809D01*
X119395238Y-62918571D01*
X119490476Y-62823333D01*
X119538095Y-62728095D01*
X119585714Y-64156666D02*
X120252380Y-64156666D01*
X119204761Y-63918571D02*
X119919047Y-63680476D01*
X119919047Y-64299523D01*
X119680952Y-64823333D02*
X119633333Y-64728095D01*
X119585714Y-64680476D01*
X119490476Y-64632857D01*
X119442857Y-64632857D01*
X119347619Y-64680476D01*
X119300000Y-64728095D01*
X119252380Y-64823333D01*
X119252380Y-65013809D01*
X119300000Y-65109047D01*
X119347619Y-65156666D01*
X119442857Y-65204285D01*
X119490476Y-65204285D01*
X119585714Y-65156666D01*
X119633333Y-65109047D01*
X119680952Y-65013809D01*
X119680952Y-64823333D01*
X119728571Y-64728095D01*
X119776190Y-64680476D01*
X119871428Y-64632857D01*
X120061904Y-64632857D01*
X120157142Y-64680476D01*
X120204761Y-64728095D01*
X120252380Y-64823333D01*
X120252380Y-65013809D01*
X120204761Y-65109047D01*
X120157142Y-65156666D01*
X120061904Y-65204285D01*
X119871428Y-65204285D01*
X119776190Y-65156666D01*
X119728571Y-65109047D01*
X119680952Y-65013809D01*
D11*
X122281904Y-61218571D02*
X121481904Y-61218571D01*
X121481904Y-61409047D01*
X121520000Y-61523333D01*
X121596190Y-61599523D01*
X121672380Y-61637619D01*
X121824761Y-61675714D01*
X121939047Y-61675714D01*
X122091428Y-61637619D01*
X122167619Y-61599523D01*
X122243809Y-61523333D01*
X122281904Y-61409047D01*
X122281904Y-61218571D01*
X122281904Y-62437619D02*
X122281904Y-61980476D01*
X122281904Y-62209047D02*
X121481904Y-62209047D01*
X121596190Y-62132857D01*
X121672380Y-62056666D01*
X121710476Y-61980476D01*
X121481904Y-62704285D02*
X121481904Y-63199523D01*
X121786666Y-62932857D01*
X121786666Y-63047142D01*
X121824761Y-63123333D01*
X121862857Y-63161428D01*
X121939047Y-63199523D01*
X122129523Y-63199523D01*
X122205714Y-63161428D01*
X122243809Y-63123333D01*
X122281904Y-63047142D01*
X122281904Y-62818571D01*
X122243809Y-62742380D01*
X122205714Y-62704285D01*
D10*
X124172380Y-66038095D02*
X123172380Y-66038095D01*
X124172380Y-66609523D02*
X123600952Y-66180952D01*
X123172380Y-66609523D02*
X123743809Y-66038095D01*
%TO.C,D3*%
X66912380Y-88287142D02*
X66912380Y-87715714D01*
X66912380Y-88001428D02*
X65912380Y-88001428D01*
X66055238Y-87906190D01*
X66150476Y-87810952D01*
X66198095Y-87715714D01*
X66912380Y-88715714D02*
X65912380Y-88715714D01*
X66912380Y-89287142D01*
X65912380Y-89287142D01*
X66245714Y-90191904D02*
X66912380Y-90191904D01*
X65864761Y-89953809D02*
X66579047Y-89715714D01*
X66579047Y-90334761D01*
X66912380Y-91239523D02*
X66912380Y-90668095D01*
X66912380Y-90953809D02*
X65912380Y-90953809D01*
X66055238Y-90858571D01*
X66150476Y-90763333D01*
X66198095Y-90668095D01*
X66245714Y-92096666D02*
X66912380Y-92096666D01*
X65864761Y-91858571D02*
X66579047Y-91620476D01*
X66579047Y-92239523D01*
X66340952Y-92763333D02*
X66293333Y-92668095D01*
X66245714Y-92620476D01*
X66150476Y-92572857D01*
X66102857Y-92572857D01*
X66007619Y-92620476D01*
X65960000Y-92668095D01*
X65912380Y-92763333D01*
X65912380Y-92953809D01*
X65960000Y-93049047D01*
X66007619Y-93096666D01*
X66102857Y-93144285D01*
X66150476Y-93144285D01*
X66245714Y-93096666D01*
X66293333Y-93049047D01*
X66340952Y-92953809D01*
X66340952Y-92763333D01*
X66388571Y-92668095D01*
X66436190Y-92620476D01*
X66531428Y-92572857D01*
X66721904Y-92572857D01*
X66817142Y-92620476D01*
X66864761Y-92668095D01*
X66912380Y-92763333D01*
X66912380Y-92953809D01*
X66864761Y-93049047D01*
X66817142Y-93096666D01*
X66721904Y-93144285D01*
X66531428Y-93144285D01*
X66436190Y-93096666D01*
X66388571Y-93049047D01*
X66340952Y-92953809D01*
X70832380Y-93978095D02*
X69832380Y-93978095D01*
X70832380Y-94549523D02*
X70260952Y-94120952D01*
X69832380Y-94549523D02*
X70403809Y-93978095D01*
D11*
X68941904Y-89539523D02*
X68141904Y-89539523D01*
X68141904Y-89730000D01*
X68180000Y-89844285D01*
X68256190Y-89920476D01*
X68332380Y-89958571D01*
X68484761Y-89996666D01*
X68599047Y-89996666D01*
X68751428Y-89958571D01*
X68827619Y-89920476D01*
X68903809Y-89844285D01*
X68941904Y-89730000D01*
X68941904Y-89539523D01*
X68141904Y-90263333D02*
X68141904Y-90758571D01*
X68446666Y-90491904D01*
X68446666Y-90606190D01*
X68484761Y-90682380D01*
X68522857Y-90720476D01*
X68599047Y-90758571D01*
X68789523Y-90758571D01*
X68865714Y-90720476D01*
X68903809Y-90682380D01*
X68941904Y-90606190D01*
X68941904Y-90377619D01*
X68903809Y-90301428D01*
X68865714Y-90263333D01*
D10*
%TO.C,D7*%
X84692380Y-88287142D02*
X84692380Y-87715714D01*
X84692380Y-88001428D02*
X83692380Y-88001428D01*
X83835238Y-87906190D01*
X83930476Y-87810952D01*
X83978095Y-87715714D01*
X84692380Y-88715714D02*
X83692380Y-88715714D01*
X84692380Y-89287142D01*
X83692380Y-89287142D01*
X84025714Y-90191904D02*
X84692380Y-90191904D01*
X83644761Y-89953809D02*
X84359047Y-89715714D01*
X84359047Y-90334761D01*
X84692380Y-91239523D02*
X84692380Y-90668095D01*
X84692380Y-90953809D02*
X83692380Y-90953809D01*
X83835238Y-90858571D01*
X83930476Y-90763333D01*
X83978095Y-90668095D01*
X84025714Y-92096666D02*
X84692380Y-92096666D01*
X83644761Y-91858571D02*
X84359047Y-91620476D01*
X84359047Y-92239523D01*
X84120952Y-92763333D02*
X84073333Y-92668095D01*
X84025714Y-92620476D01*
X83930476Y-92572857D01*
X83882857Y-92572857D01*
X83787619Y-92620476D01*
X83740000Y-92668095D01*
X83692380Y-92763333D01*
X83692380Y-92953809D01*
X83740000Y-93049047D01*
X83787619Y-93096666D01*
X83882857Y-93144285D01*
X83930476Y-93144285D01*
X84025714Y-93096666D01*
X84073333Y-93049047D01*
X84120952Y-92953809D01*
X84120952Y-92763333D01*
X84168571Y-92668095D01*
X84216190Y-92620476D01*
X84311428Y-92572857D01*
X84501904Y-92572857D01*
X84597142Y-92620476D01*
X84644761Y-92668095D01*
X84692380Y-92763333D01*
X84692380Y-92953809D01*
X84644761Y-93049047D01*
X84597142Y-93096666D01*
X84501904Y-93144285D01*
X84311428Y-93144285D01*
X84216190Y-93096666D01*
X84168571Y-93049047D01*
X84120952Y-92953809D01*
X88612380Y-93978095D02*
X87612380Y-93978095D01*
X88612380Y-94549523D02*
X88040952Y-94120952D01*
X87612380Y-94549523D02*
X88183809Y-93978095D01*
D11*
X86721904Y-89539523D02*
X85921904Y-89539523D01*
X85921904Y-89730000D01*
X85960000Y-89844285D01*
X86036190Y-89920476D01*
X86112380Y-89958571D01*
X86264761Y-89996666D01*
X86379047Y-89996666D01*
X86531428Y-89958571D01*
X86607619Y-89920476D01*
X86683809Y-89844285D01*
X86721904Y-89730000D01*
X86721904Y-89539523D01*
X85921904Y-90263333D02*
X85921904Y-90796666D01*
X86721904Y-90453809D01*
D12*
%TO.C,D6*%
X87360000Y-78200000D02*
X85360000Y-78200000D01*
X87360000Y-77500000D02*
X85360000Y-77500000D01*
X85360000Y-78200000D02*
X85360000Y-74200000D01*
X87360000Y-77700000D02*
X85360000Y-77700000D01*
X86360000Y-80010000D02*
X86360000Y-78200000D01*
X87360000Y-77600000D02*
X85360000Y-77600000D01*
X86360000Y-72390000D02*
X86360000Y-74200000D01*
X87360000Y-74200000D02*
X87360000Y-78200000D01*
X85360000Y-74200000D02*
X87360000Y-74200000D01*
%TO.C,D12*%
X105140000Y-106970000D02*
X103140000Y-106970000D01*
X103140000Y-103670000D02*
X105140000Y-103670000D01*
X103140000Y-107670000D02*
X103140000Y-103670000D01*
X105140000Y-107170000D02*
X103140000Y-107170000D01*
X104140000Y-109480000D02*
X104140000Y-107670000D01*
X105140000Y-103670000D02*
X105140000Y-107670000D01*
X105140000Y-107670000D02*
X103140000Y-107670000D01*
X105140000Y-107070000D02*
X103140000Y-107070000D01*
X104140000Y-101860000D02*
X104140000Y-103670000D01*
%TO.C,D8*%
X87360000Y-107670000D02*
X85360000Y-107670000D01*
X87360000Y-107170000D02*
X85360000Y-107170000D01*
X85360000Y-107670000D02*
X85360000Y-103670000D01*
X87360000Y-103670000D02*
X87360000Y-107670000D01*
X87360000Y-106970000D02*
X85360000Y-106970000D01*
X86360000Y-101860000D02*
X86360000Y-103670000D01*
X86360000Y-109480000D02*
X86360000Y-107670000D01*
X87360000Y-107070000D02*
X85360000Y-107070000D01*
X85360000Y-103670000D02*
X87360000Y-103670000D01*
%TO.C,D1*%
X68580000Y-66300000D02*
X68580000Y-64490000D01*
X69580000Y-64490000D02*
X67580000Y-64490000D01*
X69580000Y-63890000D02*
X67580000Y-63890000D01*
X68580000Y-58680000D02*
X68580000Y-60490000D01*
X67580000Y-64490000D02*
X67580000Y-60490000D01*
X69580000Y-60490000D02*
X69580000Y-64490000D01*
X69580000Y-63790000D02*
X67580000Y-63790000D01*
X69580000Y-63990000D02*
X67580000Y-63990000D01*
X67580000Y-60490000D02*
X69580000Y-60490000D01*
%TO.C,D11*%
X105140000Y-91830000D02*
X103140000Y-91830000D01*
X105140000Y-91930000D02*
X103140000Y-91930000D01*
X104140000Y-86620000D02*
X104140000Y-88430000D01*
X103140000Y-92430000D02*
X103140000Y-88430000D01*
X105140000Y-88430000D02*
X105140000Y-92430000D01*
X105140000Y-92430000D02*
X103140000Y-92430000D01*
X105140000Y-91730000D02*
X103140000Y-91730000D01*
X104140000Y-94240000D02*
X104140000Y-92430000D01*
X103140000Y-88430000D02*
X105140000Y-88430000D01*
%TO.C,D5*%
X86360000Y-58680000D02*
X86360000Y-60490000D01*
X87360000Y-63790000D02*
X85360000Y-63790000D01*
X87360000Y-63990000D02*
X85360000Y-63990000D01*
X86360000Y-66300000D02*
X86360000Y-64490000D01*
X85360000Y-60490000D02*
X87360000Y-60490000D01*
X87360000Y-64490000D02*
X85360000Y-64490000D01*
X85360000Y-64490000D02*
X85360000Y-60490000D01*
X87360000Y-63890000D02*
X85360000Y-63890000D01*
X87360000Y-60490000D02*
X87360000Y-64490000D01*
%TO.C,D14*%
X122920000Y-78200000D02*
X120920000Y-78200000D01*
X122920000Y-77500000D02*
X120920000Y-77500000D01*
X122920000Y-77700000D02*
X120920000Y-77700000D01*
X120920000Y-78200000D02*
X120920000Y-74200000D01*
X122920000Y-77600000D02*
X120920000Y-77600000D01*
X121920000Y-72390000D02*
X121920000Y-74200000D01*
X122920000Y-74200000D02*
X122920000Y-78200000D01*
X121920000Y-80010000D02*
X121920000Y-78200000D01*
X120920000Y-74200000D02*
X122920000Y-74200000D01*
%TO.C,D2*%
X67580000Y-78200000D02*
X67580000Y-74200000D01*
X68580000Y-72390000D02*
X68580000Y-74200000D01*
X69580000Y-77700000D02*
X67580000Y-77700000D01*
X69580000Y-77600000D02*
X67580000Y-77600000D01*
X69580000Y-78200000D02*
X67580000Y-78200000D01*
X68580000Y-80010000D02*
X68580000Y-78200000D01*
X67580000Y-74200000D02*
X69580000Y-74200000D01*
X69580000Y-77500000D02*
X67580000Y-77500000D01*
X69580000Y-74200000D02*
X69580000Y-78200000D01*
%TO.C,D9*%
X105140000Y-63790000D02*
X103140000Y-63790000D01*
X103140000Y-60490000D02*
X105140000Y-60490000D01*
X103140000Y-64490000D02*
X103140000Y-60490000D01*
X105140000Y-63990000D02*
X103140000Y-63990000D01*
X105140000Y-64490000D02*
X103140000Y-64490000D01*
X104140000Y-58680000D02*
X104140000Y-60490000D01*
X105140000Y-60490000D02*
X105140000Y-64490000D01*
X104140000Y-66300000D02*
X104140000Y-64490000D01*
X105140000Y-63890000D02*
X103140000Y-63890000D01*
%TO.C,D15*%
X122920000Y-92430000D02*
X120920000Y-92430000D01*
X121920000Y-94240000D02*
X121920000Y-92430000D01*
X122920000Y-91730000D02*
X120920000Y-91730000D01*
X121920000Y-86620000D02*
X121920000Y-88430000D01*
X122920000Y-88430000D02*
X122920000Y-92430000D01*
X120920000Y-88430000D02*
X122920000Y-88430000D01*
X122920000Y-91930000D02*
X120920000Y-91930000D01*
X120920000Y-92430000D02*
X120920000Y-88430000D01*
X122920000Y-91830000D02*
X120920000Y-91830000D01*
%TO.C,D4*%
X69580000Y-103670000D02*
X69580000Y-107670000D01*
X67580000Y-103670000D02*
X69580000Y-103670000D01*
X69580000Y-106970000D02*
X67580000Y-106970000D01*
X68580000Y-101860000D02*
X68580000Y-103670000D01*
X68580000Y-109480000D02*
X68580000Y-107670000D01*
X69580000Y-107670000D02*
X67580000Y-107670000D01*
X67580000Y-107670000D02*
X67580000Y-103670000D01*
X69580000Y-107170000D02*
X67580000Y-107170000D01*
X69580000Y-107070000D02*
X67580000Y-107070000D01*
%TO.C,D10*%
X103140000Y-74200000D02*
X105140000Y-74200000D01*
X105140000Y-77500000D02*
X103140000Y-77500000D01*
X104140000Y-80010000D02*
X104140000Y-78200000D01*
X105140000Y-77700000D02*
X103140000Y-77700000D01*
X105140000Y-78200000D02*
X103140000Y-78200000D01*
X103140000Y-78200000D02*
X103140000Y-74200000D01*
X105140000Y-74200000D02*
X105140000Y-78200000D01*
X104140000Y-72390000D02*
X104140000Y-74200000D01*
X105140000Y-77600000D02*
X103140000Y-77600000D01*
%TO.C,D16*%
X122920000Y-107670000D02*
X120920000Y-107670000D01*
X122920000Y-107070000D02*
X120920000Y-107070000D01*
X121920000Y-101860000D02*
X121920000Y-103670000D01*
X121920000Y-109480000D02*
X121920000Y-107670000D01*
X122920000Y-106970000D02*
X120920000Y-106970000D01*
X122920000Y-103670000D02*
X122920000Y-107670000D01*
X122920000Y-107170000D02*
X120920000Y-107170000D01*
X120920000Y-103670000D02*
X122920000Y-103670000D01*
X120920000Y-107670000D02*
X120920000Y-103670000D01*
%TO.C,D13*%
X120920000Y-64490000D02*
X120920000Y-60490000D01*
X120920000Y-60490000D02*
X122920000Y-60490000D01*
X121920000Y-58680000D02*
X121920000Y-60490000D01*
X122920000Y-60490000D02*
X122920000Y-64490000D01*
X121920000Y-66300000D02*
X121920000Y-64490000D01*
X122920000Y-63990000D02*
X120920000Y-63990000D01*
X122920000Y-63890000D02*
X120920000Y-63890000D01*
X122920000Y-64490000D02*
X120920000Y-64490000D01*
X122920000Y-63790000D02*
X120920000Y-63790000D01*
%TO.C,D3*%
X67580000Y-88430000D02*
X69580000Y-88430000D01*
X69580000Y-91830000D02*
X67580000Y-91830000D01*
X69580000Y-92430000D02*
X67580000Y-92430000D01*
X68580000Y-86620000D02*
X68580000Y-88430000D01*
X69580000Y-88430000D02*
X69580000Y-92430000D01*
X68580000Y-94240000D02*
X68580000Y-92430000D01*
X69580000Y-91930000D02*
X67580000Y-91930000D01*
X67580000Y-92430000D02*
X67580000Y-88430000D01*
X69580000Y-91730000D02*
X67580000Y-91730000D01*
%TO.C,D7*%
X86360000Y-86620000D02*
X86360000Y-88430000D01*
X86360000Y-94240000D02*
X86360000Y-92430000D01*
X87360000Y-91730000D02*
X85360000Y-91730000D01*
X87360000Y-91830000D02*
X85360000Y-91830000D01*
X85360000Y-88430000D02*
X87360000Y-88430000D01*
X85360000Y-92430000D02*
X85360000Y-88430000D01*
X87360000Y-91930000D02*
X85360000Y-91930000D01*
X87360000Y-92430000D02*
X85360000Y-92430000D01*
X87360000Y-88430000D02*
X87360000Y-92430000D01*
%TD*%
M02*
