M48
; DRILL file {KiCad (6.0.1)} date Thu Jan 27 23:18:04 2022
; FORMAT={-:-/ absolute / inch / decimal}
; #@! TF.CreationDate,2022-01-27T23:18:04+02:00
; #@! TF.GenerationSoftware,Kicad,Pcbnew,(6.0.1)
; #@! TF.FileFunction,Plated,1,2,PTH
FMAT,2
INCH
; #@! TA.AperFunction,Plated,PTH,ViaDrill
T1C0.0157
; #@! TA.AperFunction,Plated,PTH,ComponentDrill
T2C0.0315
; #@! TA.AperFunction,Plated,PTH,ComponentDrill
T3C0.0394
; #@! TA.AperFunction,Plated,PTH,ComponentDrill
T4C0.0512
%
G90
G05
T1
X3.1Y-4.3
X3.8Y-4.3
X4.4708Y-4.2269
T2
X2.7Y-2.3102
X2.7Y-2.6102
X2.7Y-2.85
X2.7Y-3.15
X2.7Y-3.4102
X2.7Y-3.7102
X2.7Y-4.0102
X2.7Y-4.3102
X3.4Y-2.3102
X3.4Y-2.6102
X3.4Y-2.85
X3.4Y-3.15
X3.4Y-3.4102
X3.4Y-3.7102
X3.4Y-4.0102
X3.4Y-4.3102
X4.1Y-2.3102
X4.1Y-2.6102
X4.1Y-2.85
X4.1Y-3.15
X4.1Y-3.4102
X4.1Y-3.7102
X4.1Y-4.0102
X4.1Y-4.3102
X4.8Y-2.3102
X4.8Y-2.6102
X4.8Y-2.85
X4.8Y-3.15
X4.8Y-3.4102
X4.8Y-3.7102
X4.8Y-4.0102
X4.8Y-4.3102
T3
X3.9Y-4.5
X3.9Y-4.6
X4.0Y-4.5
X4.0Y-4.6
X4.1Y-4.5
X4.1Y-4.6
X4.2Y-4.5
X4.2Y-4.6
X4.3Y-4.5
X4.3Y-4.6
X4.4Y-4.5
X4.4Y-4.6
X4.5Y-4.5
X4.5Y-4.6
X4.6Y-4.5
X4.6Y-4.6
T4
X2.4543Y-2.3016
X2.4543Y-2.4984
X2.4543Y-2.8413
X2.4543Y-3.0382
X2.4543Y-3.4016
X2.4543Y-3.5984
X2.4543Y-4.0016
X2.4543Y-4.1984
X2.9465Y-2.3016
X2.9465Y-2.4984
X2.9465Y-2.8413
X2.9465Y-3.0382
X2.9465Y-3.4016
X2.9465Y-3.5984
X2.9465Y-4.0016
X2.9465Y-4.1984
X3.1543Y-2.3016
X3.1543Y-2.4984
X3.1543Y-2.8413
X3.1543Y-3.0382
X3.1543Y-3.4016
X3.1543Y-3.5984
X3.1543Y-4.0016
X3.1543Y-4.1984
X3.6465Y-2.3016
X3.6465Y-2.4984
X3.6465Y-2.8413
X3.6465Y-3.0382
X3.6465Y-3.4016
X3.6465Y-3.5984
X3.6465Y-4.0016
X3.6465Y-4.1984
X3.8543Y-2.3016
X3.8543Y-2.4984
X3.8543Y-2.8413
X3.8543Y-3.0382
X3.8543Y-3.4016
X3.8543Y-3.5984
X3.8543Y-4.0016
X3.8543Y-4.1984
X4.3465Y-2.3016
X4.3465Y-2.4984
X4.3465Y-2.8413
X4.3465Y-3.0382
X4.3465Y-3.4016
X4.3465Y-3.5984
X4.3465Y-4.0016
X4.3465Y-4.1984
X4.5543Y-2.3016
X4.5543Y-2.4984
X4.5543Y-2.8413
X4.5543Y-3.0382
X4.5543Y-3.4016
X4.5543Y-3.5984
X4.5543Y-4.0016
X4.5543Y-4.1984
X5.0465Y-2.3016
X5.0465Y-2.4984
X5.0465Y-2.8413
X5.0465Y-3.0382
X5.0465Y-3.4016
X5.0465Y-3.5984
X5.0465Y-4.0016
X5.0465Y-4.1984
T0
M30
