%TF.GenerationSoftware,KiCad,Pcbnew,(6.0.1)*%
%TF.CreationDate,2022-01-27T23:18:00+02:00*%
%TF.ProjectId,Keypadv1,4b657970-6164-4763-912e-6b696361645f,rev?*%
%TF.SameCoordinates,Original*%
%TF.FileFunction,Soldermask,Bot*%
%TF.FilePolarity,Negative*%
%FSLAX46Y46*%
G04 Gerber Fmt 4.6, Leading zero omitted, Abs format (unit mm)*
G04 Created by KiCad (PCBNEW (6.0.1)) date 2022-01-27 23:18:00*
%MOMM*%
%LPD*%
G01*
G04 APERTURE LIST*
%ADD10O,3.048000X1.850000*%
%ADD11R,1.700000X1.700000*%
%ADD12O,1.700000X1.700000*%
%ADD13C,3.200000*%
%ADD14R,1.600000X1.600000*%
%ADD15O,1.600000X1.600000*%
G04 APERTURE END LIST*
D10*
%TO.C,SW5*%
X80120000Y-58460000D03*
X92620000Y-58460000D03*
X92620000Y-63460000D03*
X80120000Y-63460000D03*
%TD*%
%TO.C,SW2*%
X62340000Y-72170000D03*
X74840000Y-72170000D03*
X62340000Y-77170000D03*
X74840000Y-77170000D03*
%TD*%
%TO.C,SW4*%
X74840000Y-101640000D03*
X62340000Y-101640000D03*
X74840000Y-106640000D03*
X62340000Y-106640000D03*
%TD*%
%TO.C,SW6*%
X92620000Y-72170000D03*
X80120000Y-72170000D03*
X92620000Y-77170000D03*
X80120000Y-77170000D03*
%TD*%
D11*
%TO.C,J2*%
X99060000Y-116840000D03*
D12*
X101600000Y-116840000D03*
X104140000Y-116840000D03*
X106680000Y-116840000D03*
X109220000Y-116840000D03*
X111760000Y-116840000D03*
X114300000Y-116840000D03*
X116840000Y-116840000D03*
%TD*%
D10*
%TO.C,SW10*%
X97900000Y-72170000D03*
X110400000Y-72170000D03*
X97900000Y-77170000D03*
X110400000Y-77170000D03*
%TD*%
D13*
%TO.C,3mm*%
X127000000Y-114300000D03*
%TD*%
D10*
%TO.C,SW1*%
X74840000Y-58460000D03*
X62340000Y-58460000D03*
X74840000Y-63460000D03*
X62340000Y-63460000D03*
%TD*%
%TO.C,SW11*%
X97900000Y-86400000D03*
X110400000Y-86400000D03*
X97900000Y-91400000D03*
X110400000Y-91400000D03*
%TD*%
%TO.C,SW15*%
X128180000Y-86400000D03*
X115680000Y-86400000D03*
X128180000Y-91400000D03*
X115680000Y-91400000D03*
%TD*%
%TO.C,SW12*%
X110400000Y-101640000D03*
X97900000Y-101640000D03*
X110400000Y-106640000D03*
X97900000Y-106640000D03*
%TD*%
%TO.C,SW8*%
X92620000Y-101640000D03*
X80120000Y-101640000D03*
X92620000Y-106640000D03*
X80120000Y-106640000D03*
%TD*%
D13*
%TO.C,3mm*%
X63500000Y-50800000D03*
%TD*%
D11*
%TO.C,J1*%
X99060000Y-114300000D03*
D12*
X101600000Y-114300000D03*
X104140000Y-114300000D03*
X106680000Y-114300000D03*
X109220000Y-114300000D03*
X111760000Y-114300000D03*
X114300000Y-114300000D03*
X116840000Y-114300000D03*
%TD*%
D10*
%TO.C,SW9*%
X97900000Y-58460000D03*
X110400000Y-58460000D03*
X97900000Y-63460000D03*
X110400000Y-63460000D03*
%TD*%
D13*
%TO.C,3mm*%
X127000000Y-50800000D03*
%TD*%
D10*
%TO.C,SW7*%
X92620000Y-86400000D03*
X80120000Y-86400000D03*
X92620000Y-91400000D03*
X80120000Y-91400000D03*
%TD*%
D13*
%TO.C,3mm*%
X63500000Y-114300000D03*
%TD*%
D10*
%TO.C,SW16*%
X128180000Y-101640000D03*
X115680000Y-101640000D03*
X128180000Y-106640000D03*
X115680000Y-106640000D03*
%TD*%
%TO.C,SW13*%
X115680000Y-58460000D03*
X128180000Y-58460000D03*
X128180000Y-63460000D03*
X115680000Y-63460000D03*
%TD*%
%TO.C,SW14*%
X115680000Y-72170000D03*
X128180000Y-72170000D03*
X115680000Y-77170000D03*
X128180000Y-77170000D03*
%TD*%
%TO.C,SW3*%
X62340000Y-86400000D03*
X74840000Y-86400000D03*
X62340000Y-91400000D03*
X74840000Y-91400000D03*
%TD*%
D14*
%TO.C,D6*%
X86360000Y-80010000D03*
D15*
X86360000Y-72390000D03*
%TD*%
D14*
%TO.C,D12*%
X104140000Y-109480000D03*
D15*
X104140000Y-101860000D03*
%TD*%
D14*
%TO.C,D8*%
X86360000Y-109480000D03*
D15*
X86360000Y-101860000D03*
%TD*%
D14*
%TO.C,D1*%
X68580000Y-66300000D03*
D15*
X68580000Y-58680000D03*
%TD*%
D14*
%TO.C,D11*%
X104140000Y-94240000D03*
D15*
X104140000Y-86620000D03*
%TD*%
D14*
%TO.C,D5*%
X86360000Y-66300000D03*
D15*
X86360000Y-58680000D03*
%TD*%
D14*
%TO.C,D14*%
X121920000Y-80010000D03*
D15*
X121920000Y-72390000D03*
%TD*%
D14*
%TO.C,D2*%
X68580000Y-80010000D03*
D15*
X68580000Y-72390000D03*
%TD*%
D14*
%TO.C,D9*%
X104140000Y-66300000D03*
D15*
X104140000Y-58680000D03*
%TD*%
D14*
%TO.C,D15*%
X121920000Y-94240000D03*
D15*
X121920000Y-86620000D03*
%TD*%
D14*
%TO.C,D4*%
X68580000Y-109480000D03*
D15*
X68580000Y-101860000D03*
%TD*%
D14*
%TO.C,D10*%
X104140000Y-80010000D03*
D15*
X104140000Y-72390000D03*
%TD*%
D14*
%TO.C,D16*%
X121920000Y-109480000D03*
D15*
X121920000Y-101860000D03*
%TD*%
D14*
%TO.C,D13*%
X121920000Y-66300000D03*
D15*
X121920000Y-58680000D03*
%TD*%
D14*
%TO.C,D3*%
X68580000Y-94240000D03*
D15*
X68580000Y-86620000D03*
%TD*%
D14*
%TO.C,D7*%
X86360000Y-94240000D03*
D15*
X86360000Y-86620000D03*
%TD*%
M02*
